<?xml version="1.0" encoding="utf-8"?>
<!-- Generator: Adobe Illustrator 19.0.0, SVG Export Plug-In . SVG Version: 6.00 Build 0)  -->
<svg version="1.1" id="图层_1" xmlns="http://www.w3.org/2000/svg" xmlns:xlink="http://www.w3.org/1999/xlink" x="0px" y="0px"
	 viewBox="0 0 294 600" style="enable-background:new 0 0 294 600;" xml:space="preserve">
<style type="text/css">
	.st0{fill:#6B6B6B;}
	.st1{fill:#040000;}
	.st2{fill:#FFFFFF;}
	.st3{fill:#7C7B7C;}
	.st4{fill:#474747;}
</style>
<g id="XMLID_1_">
	<path id="XMLID_3_" class="st0" d="M259.1,599.7H37.9c-19.3,0-35-15.7-35-35v-530c0-19.3,15.7-35,35-35h221.3c19.3,0,35,15.7,35,35
		v530C294.1,584.1,278.5,599.7,259.1,599.7z"/>
	<path id="XMLID_2_" class="st1" d="M256.2,595.5H41.6c-18.5,0-33.5-15-33.5-33.5V36.5C8.2,18,23.2,3,41.6,3h214.6
		c18.5,0,33.5,15,33.5,33.5V562C289.7,580.5,274.7,595.5,256.2,595.5z"/>
	<rect id="XMLID_4_" x="20.5" y="72.2" class="st2" width="255.3" height="450.9"/>
	<path id="XMLID_7_" class="st3" d="M2.8,183.9H1.8c-0.5,0-0.9,0.4-0.9,0.9v39.9c0,0.5,0.4,0.9,0.9,0.9h1.1V183.9z"/>
	<path id="XMLID_8_" class="st3" d="M2.8,128.2h-1c-0.6,0-1,0.5-1,1v39.7c0,0.6,0.5,1,1,1h1V128.2z"/>
	<path id="XMLID_10_" class="st3" d="M2.8,76.7H1.7c-0.5,0-0.8,0.4-0.8,0.8v20.4c0,0.5,0.4,0.8,0.8,0.8h1.2V76.7z"/>
	<circle id="XMLID_9_" class="st4" cx="102.5" cy="37.7" r="4"/>
	<path id="XMLID_11_" class="st4" d="M170.6,39.6h-42.3c-0.7,0-1.3-0.6-1.3-1.3v-0.6c0-0.7,0.6-1.3,1.3-1.3h42.3
		c0.7,0,1.3,0.6,1.3,1.3v0.6C171.9,39,171.3,39.6,170.6,39.6z"/>
	<path id="XMLID_16_" class="st4" d="M148.9,536.3c-12.5,0-22.6,10.1-22.6,22.6c0,12.5,10.1,22.6,22.6,22.6
		c12.5,0,22.6-10.1,22.6-22.6C171.5,546.4,161.4,536.3,148.9,536.3z M148.9,579.3c-11.3,0-20.4-9.1-20.4-20.4s9.1-20.4,20.4-20.4
		c11.3,0,20.4,9.1,20.4,20.4S160.2,579.3,148.9,579.3z"/>
</g>
</svg>
