<?xml version="1.0" encoding="utf-8"?>
<!-- Generator: Adobe Illustrator 19.0.0, SVG Export Plug-In . SVG Version: 6.00 Build 0)  -->
<svg version="1.1" id="图层_1" xmlns="http://www.w3.org/2000/svg" xmlns:xlink="http://www.w3.org/1999/xlink" x="0px" y="0px"
	 viewBox="0 0 600 294" style="enable-background:new 0 0 600 294;" xml:space="preserve">
<style type="text/css">
	.st0{fill:#6B6C6B;}
	.st1{fill:#070001;}
	.st2{fill:#FFFFFF;}
	.st3{fill:#7C7B7C;}
	.st4{fill:#484747;}
</style>
<g id="XMLID_1_">
	<path id="XMLID_3_" class="st0" d="M599.5,36.1v221.2c0,19.3-15.7,35-35,35h-530c-19.3,0-35-15.7-35-35V36c0-19.3,15.7-35,35-35
		h530C583.9,1.1,599.5,16.7,599.5,36.1z"/>
	<path id="XMLID_2_" class="st1" d="M595.3,39v214.6c0,18.5-15,33.5-33.5,33.5H36.3C17.8,287,2.8,272,2.8,253.6V39
		c0-18.5,15-33.5,33.5-33.5h525.5C580.3,5.5,595.3,20.5,595.3,39z"/>
	<rect id="XMLID_4_" x="72" y="19.4" class="st2" width="450.9" height="255.3"/>
	<path id="XMLID_7_" class="st3" d="M183.7,292.4v1c0,0.5,0.4,0.9,0.9,0.9h39.9c0.5,0,0.9-0.4,0.9-0.9v-1.1h-41.7V292.4z"/>
	<path id="XMLID_8_" class="st3" d="M128,292.4v1c0,0.6,0.5,1,1,1h39.7c0.6,0,1-0.5,1-1v-1H128z"/>
	<path id="XMLID_10_" class="st3" d="M76.5,292.4v1.1c0,0.5,0.4,0.8,0.8,0.8h20.4c0.5,0,0.8-0.4,0.8-0.8v-1.2h-22V292.4z"/>
	<circle id="XMLID_9_" class="st4" cx="37.5" cy="192.7" r="4"/>
	<path id="XMLID_11_" class="st4" d="M39.4,124.6v42.3c0,0.7-0.6,1.3-1.3,1.3h-0.6c-0.7,0-1.3-0.6-1.3-1.3v-42.3
		c0-0.7,0.6-1.3,1.3-1.3h0.6C38.8,123.3,39.4,123.9,39.4,124.6z"/>
	<path id="XMLID_16_" class="st4" d="M536.1,146.3c0,12.5,10.1,22.6,22.6,22.6s22.6-10.1,22.6-22.6s-10.1-22.6-22.6-22.6
		C546.2,123.7,536.1,133.8,536.1,146.3z M579.1,146.3c0,11.3-9.1,20.4-20.4,20.4s-20.4-9.1-20.4-20.4c0-11.3,9.1-20.4,20.4-20.4
		S579.1,135,579.1,146.3z"/>
</g>
</svg>
