<?xml version="1.0" encoding="utf-8"?>
<!-- Generator: Adobe Illustrator 19.0.0, SVG Export Plug-In . SVG Version: 6.00 Build 0)  -->
<svg version="1.1" id="图层_1" xmlns="http://www.w3.org/2000/svg" xmlns:xlink="http://www.w3.org/1999/xlink" x="0px" y="0px"
	 viewBox="0 0 973 1248" style="enable-background:new 0 0 973 1248;" xml:space="preserve">
<style type="text/css">
	.st0{fill:#6B6C6B;}
	.st1{fill:#070001;}
	.st2{fill:#FFFFFF;}
	.st3{fill:#484747;}
</style>
<g id="XMLID_1_">
	<path id="XMLID_3_" class="st0" d="M900.7,1247.7H73.5c-40.1,0-72.8-32.7-72.8-72.8V72.5c0-40.1,32.6-72.8,72.8-72.8h827.5
		c40.1,0,72.8,32.7,72.8,72.8v1102.4C973.5,1215.3,941.1,1247.7,900.7,1247.7z"/>
	<path id="XMLID_2_" class="st1" d="M894,1239H80.4c-38.5,0-69.6-31.2-69.6-69.7V76.2C11,37.8,42.2,6.6,80.4,6.6H894
		c38.5,0,69.6,31.2,69.6,69.7v1093C963.6,1207.8,932.4,1239,894,1239z"/>
	<rect id="XMLID_4_" x="38.1" y="150.5" class="st2" width="898.2" height="937.9"/>
	<path id="XMLID_16_" class="st3" d="M487.2,1115.8c-26,0-47,21-47,47s21,47,47,47c26,0,47-21,47-47
		C534.2,1136.8,513.2,1115.8,487.2,1115.8z M487.2,1205.3c-23.5,0-42.4-18.9-42.4-42.4c0-23.5,18.9-42.4,42.4-42.4
		c23.5,0,42.4,18.9,42.4,42.4C529.6,1186.3,510.7,1205.3,487.2,1205.3z"/>
</g>
</svg>
