<?xml version="1.0" encoding="utf-8"?>
<!-- Generator: Adobe Illustrator 19.0.0, SVG Export Plug-In . SVG Version: 6.00 Build 0)  -->
<svg version="1.1" id="图层_1" xmlns="http://www.w3.org/2000/svg" xmlns:xlink="http://www.w3.org/1999/xlink" x="0px" y="0px"
	 viewBox="59 -14 130 40" style="enable-background:new 59 -14 130 40;" xml:space="preserve">
<style type="text/css">
	.st0{fill:none;stroke:#FFFFFF;stroke-width:4;stroke-linecap:round;stroke-linejoin:round;stroke-miterlimit:10;}
	.st1{fill:#FFFFFF;}
	.st2{fill:none;}
</style>
<path class="st0" d="M111,14.7c0.3-0.9,0.4-1.8,0.4-2.8c0-5-4.1-9.1-9.1-9.1c0-6-5.3-10.9-11.9-10.9c-5.7,0-10.5,3.7-11.6,8.7
	c-0.7-0.1-1.4-0.2-2.2-0.2c-5.7,0-10.3,4.6-10.3,10.3c0,5.7,4.6,10.3,10.3,10.3h8"/>
<path class="st1" d="M99.4,8l-9.7-0.2c-0.3,0-0.6,0.3-0.6,0.6l-0.2,9.8c0,0.5,0.6,0.8,1,0.4l2.4-2.3c0.2-0.2,0.6-0.2,0.9,0
	c0.8,0.8,2.2,2.3,5.5,3.9c4.2,2.1,11.2,1.5,11.2,1.5s-4.4-1.8-8.3-4.8c-2.2-1.7-3.8-3.6-4.4-4.9c-0.1-0.2,0-0.5,0.1-0.7L99.8,9
	C100.2,8.6,99.9,8,99.4,8z"/>
<g>
	<path class="st1" d="M125,5.3l1.2,0.2c-0.4,1.5-1,3.1-1.6,4.8c-0.3-0.1-0.7-0.2-1.2-0.3C123.9,8.7,124.4,7.1,125,5.3z M127.5,1h1.4
		l-0.7,4.1l0.8-0.5c0.7,0.9,1.2,1.8,1.7,2.6l-1.3,0.8c-0.4-0.9-0.9-1.6-1.3-2.4l-2.2,13.6h-1.4L127.5,1z M128.7,10.2h5
		c0.3-1,0.6-2.6,0.9-4.6h-3.9l0.2-1.3h3.9c0.2-1,0.3-2.1,0.5-3.3h1.5c-0.2,1.2-0.4,2.3-0.5,3.3h4.6l-1,6h1.8l-0.2,1.3h-6.1
		c0.6,2.8,2.2,4.9,5,6.2c-0.4,0.3-0.9,0.8-1.5,1.4c-2.6-1.6-4.1-3.9-4.7-6.8c-1.2,2.8-3.4,5.1-6.6,7c-0.3-0.5-0.6-0.9-0.9-1.3
		c3.3-1.8,5.4-4,6.5-6.6h-4.8L128.7,10.2z M139.3,5.6h-3.1c-0.3,2-0.6,3.5-0.9,4.6h3.3L139.3,5.6z"/>
	<path class="st1" d="M142.5,11.7h8.5l0.5-3.4h-7.1l0.2-1.5h7.1l0.5-3.4c-2.4,0.1-4.8,0.2-7.3,0.2c0-0.5,0-1,0-1.5
		c6.4-0.1,11.6-0.3,15.7-0.7l0,1.5c-2.2,0.1-4.5,0.3-6.8,0.4l-0.6,3.5h6.8l-0.2,1.5h-6.8l-0.5,3.4h8.4l-0.2,1.5h-8.4l-0.5,3.5
		c-0.2,1.5-1.1,2.3-2.7,2.3c-0.8,0-1.9,0-3.3,0c0-0.6,0-1.1,0-1.7c1.4,0.1,2.4,0.1,3.1,0.1c0.8,0,1.2-0.4,1.4-1.3l0.5-2.9h-8.5
		L142.5,11.7z"/>
	<path class="st1" d="M173.9,11.1c1.5,2.1,3,4.3,4.5,6.6l-1.6,1.1c-0.4-0.6-0.7-1.2-1.1-1.8c-4.5,0.2-8.3,0.3-11.5,0.5
		c-0.5,0.1-1.1,0.2-1.6,0.3l-0.5-1.7c0.8-0.4,1.5-0.8,2.1-1.4c1.6-1.6,3.1-3.4,4.6-5.3h-6.8l0.2-1.4h18.3l-0.2,1.4H171
		c-2.3,2.8-4.3,5-5.9,6.6c4.3-0.1,7.6-0.2,9.9-0.3c-0.8-1.3-1.6-2.5-2.4-3.7L173.9,11.1z M165.1,2.2h14.8l-0.2,1.4h-14.8L165.1,2.2z
		"/>
</g>
<rect x="64.3" y="-10.1" class="st2" width="118" height="33.1"/>
</svg>
