<?xml version="1.0" encoding="utf-8"?>
<!-- Generator: Adobe Illustrator 19.0.0, SVG Export Plug-In . SVG Version: 6.00 Build 0)  -->
<svg version="1.1" id="图层_1" xmlns="http://www.w3.org/2000/svg" xmlns:xlink="http://www.w3.org/1999/xlink" x="0px" y="0px"
	 viewBox="-469 231 60 40" style="enable-background:new -469 231 60 40;" xml:space="preserve">
<style type="text/css">
	.st0{fill:#FFFFFF;}
</style>
<path class="st0" d="M-443,268.5h-8c-6.8,0-12.4-5.5-12.4-12.3s5.5-12.3,12.3-12.3c0.3,0,0.5,0,0.8,0c1.9-5,7.1-8.5,13-8.5
	c7,0,12.8,4.8,13.8,11.1c5.2,0.9,9.2,5.5,9.2,10.9c0,1.3-0.2,2.4-0.5,3.4c-0.3,1-1.5,1.6-2.5,1.3c-1-0.3-1.6-1.5-1.3-2.5
	c0.2-0.6,0.3-1.3,0.3-2.2c0-3.9-3.2-7.1-7.1-7.1c-1.1,0-2-0.9-2-2c0-4.9-4.4-8.9-9.9-8.9c-4.7,0-8.7,3-9.6,7.1
	c-0.2,1-1.2,1.7-2.2,1.5c-0.6-0.1-1.3-0.2-1.9-0.2c-4.6,0-8.3,3.7-8.3,8.3c0,4.7,3.7,8.3,8.4,8.3h8c1.1,0,2,0.9,2,2
	S-441.9,268.5-443,268.5z"/>
<path id="XMLID_8_" class="st0" d="M-428.4,252.1l-11.1-0.2l-0.2,11.2l3.6-3.5c0.6,0.6,1.8,2.2,5.5,4.1c3.9,2,10.5,1.4,10.5,1.4
	s-4.2-1.7-7.8-4.5c-2.3-1.8-4-3.8-4.2-5L-428.4,252.1z"/>
</svg>
