<?xml version="1.0" encoding="utf-8"?>
<!-- Generator: Adobe Illustrator 16.0.0, SVG Export Plug-In . SVG Version: 6.00 Build 0)  -->
<!DOCTYPE svg PUBLIC "-//W3C//DTD SVG 1.1//EN" "http://www.w3.org/Graphics/SVG/1.1/DTD/svg11.dtd">
<svg version="1.1" id="图层_1" xmlns="http://www.w3.org/2000/svg" xmlns:xlink="http://www.w3.org/1999/xlink" x="0px" y="0px"
	 width="76px" height="76px" viewBox="0 0 76 76" enable-background="new 0 0 76 76" xml:space="preserve">
<g id="XMLID_119_">
	<path id="XMLID_175_" fill="#3EB0BB" d="M38.202,51.543c-4.347,0-7.985-1.109-8.591-2.625c-0.103,0.201-0.103,0.303-0.103,0.504
		v2.121c0,1.721,3.943,3.135,8.694,3.135c4.752,0,8.692-1.414,8.692-3.135v-2.121c0-0.201,0-0.303-0.101-0.504
		C46.187,50.434,42.548,51.543,38.202,51.543z"/>
	<path id="XMLID_170_" fill="#3EB0BB" d="M38.202,56.801c-4.347,0-7.985-1.111-8.591-2.627c-0.103,0.203-0.103,0.303-0.103,0.504
		v2.123c0,1.719,3.943,3.135,8.694,3.135c4.752,0,8.692-1.416,8.692-3.135v-2.123c0-0.201,0-0.301-0.101-0.504
		C46.187,55.588,42.548,56.801,38.202,56.801z"/>
	<path id="XMLID_169_" fill="#3EB0BB" d="M38.202,61.957c-4.347,0-7.985-1.109-8.591-2.631c-0.103,0.205-0.103,0.307-0.103,0.508
		v2.123c0,1.717,3.943,3.133,8.694,3.133c4.752,0,8.692-1.416,8.692-3.133v-2.123c0-0.201,0-0.303-0.101-0.508
		C46.187,60.848,42.548,61.957,38.202,61.957z"/>
	<path id="XMLID_168_" fill="#3EB0BB" d="M38.202,41.135c-4.852,0-8.694,1.416-8.694,3.131v2.125c0,1.717,3.943,3.133,8.694,3.133
		c4.752,0,8.692-1.416,8.692-3.133v-2.125C46.895,42.551,42.954,41.135,38.202,41.135z"/>
</g>
<polyline id="XMLID_137_" fill="none" stroke="#3EB0BB" stroke-miterlimit="10" points="35.777,68.02 35.777,75.4 0.5,60.035 
	0.5,16.37 35.777,31.834 35.777,38.809 "/>
<polyline id="XMLID_82_" fill="none" stroke="#3EB0BB" stroke-miterlimit="10" points="40.225,68.02 40.225,75.4 75.5,60.035 
	75.5,16.37 40.225,31.834 40.225,39.012 "/>
<polygon id="XMLID_148_" fill="#3EB0BB" points="73.58,13.237 38,29.106 2.319,13.237 38,2.521 "/>
</svg>
