<?xml version="1.0" encoding="utf-8"?>
<!-- Generator: Adobe Illustrator 16.0.0, SVG Export Plug-In . SVG Version: 6.00 Build 0)  -->
<!DOCTYPE svg PUBLIC "-//W3C//DTD SVG 1.1//EN" "http://www.w3.org/Graphics/SVG/1.1/DTD/svg11.dtd">
<svg version="1.1" id="图层_1" xmlns="http://www.w3.org/2000/svg" xmlns:xlink="http://www.w3.org/1999/xlink" x="0px" y="0px"
	 width="76px" height="76px" viewBox="0 0 76 76" enable-background="new 0 0 76 76" xml:space="preserve">
<path fill="none" stroke="#40A8B2" stroke-linecap="round" stroke-linejoin="round" stroke-miterlimit="10" d="M68.022,73.175H8.121
	c-4.22,0-7.64-3.42-7.64-7.638c0-4.22,3.42-7.639,7.64-7.639h59.901c4.217,0,7.637,3.419,7.637,7.639
	C75.659,69.755,72.239,73.175,68.022,73.175z"/>
<path fill="none" stroke="#40A8B2" stroke-linecap="round" stroke-linejoin="round" stroke-miterlimit="10" d="M67.204,65.537
	c0,2.285-1.853,4.139-4.136,4.139c-2.287,0-4.143-1.854-4.143-4.139c0-2.286,1.855-4.137,4.143-4.137
	C65.352,61.4,67.204,63.251,67.204,65.537"/>
<path fill="none" stroke="#40A8B2" stroke-linecap="round" stroke-linejoin="round" stroke-miterlimit="10" d="M50.288,65.537
	c0,1.524-1.24,2.761-2.765,2.761c-1.525,0-2.756-1.236-2.756-2.761c0-1.525,1.23-2.763,2.756-2.763
	C49.048,62.774,50.288,64.012,50.288,65.537"/>
<path fill="none" stroke="#40A8B2" stroke-linecap="round" stroke-linejoin="round" stroke-miterlimit="10" d="M43.457,42.111V13.48
	c0-2.992-2.426-5.418-5.422-5.418c-2.994,0-5.419,2.426-5.419,5.418v25.015c-0.104,1.681-0.028,2.853-0.068,3.563h-9.792
	L38.164,57.26l15.059-15.201L43.457,42.111z"/>
<rect x="-0.731" y="8.063" fill="none" width="77.606" height="66.326"/>
</svg>
