<?xml version="1.0" encoding="utf-8"?>
<!-- Generator: Adobe Illustrator 16.0.0, SVG Export Plug-In . SVG Version: 6.00 Build 0)  -->
<!DOCTYPE svg PUBLIC "-//W3C//DTD SVG 1.1//EN" "http://www.w3.org/Graphics/SVG/1.1/DTD/svg11.dtd">
<svg version="1.1" id="图层_1" xmlns="http://www.w3.org/2000/svg" xmlns:xlink="http://www.w3.org/1999/xlink" x="0px" y="0px"
	 width="76px" height="76px" viewBox="0 0 76 76" enable-background="new 0 0 76 76" xml:space="preserve">
<path fill="none" stroke="#3EB0BB" stroke-miterlimit="10" d="M68.525,65.109H7.741c-3.909,0-7.081-3.17-7.081-7.08V22.208
	c0-3.909,3.171-7.081,7.081-7.081h60.784c3.908,0,7.08,3.171,7.08,7.081v35.821C75.605,61.939,72.434,65.109,68.525,65.109z"/>
<rect x="32.437" y="65.109" fill="#3EB0BB" width="11.394" height="9.451"/>
<rect x="14.285" y="73.118" fill="#3EB0BB" width="47.697" height="2.882"/>
<rect x="25" y="25.4" fill="none" stroke="#3EB0BB" stroke-miterlimit="10" width="10.841" height="10.841"/>
<rect x="42.459" y="25.4" transform="matrix(0.7071 -0.7071 0.7071 0.7071 -7.7695 42.8852)" fill="none" stroke="#3EB0BB" stroke-miterlimit="10" width="10.842" height="10.842"/>
<rect x="25" y="42.458" fill="none" stroke="#3EB0BB" stroke-miterlimit="10" width="10.841" height="10.841"/>
<rect x="42.459" y="42.458" fill="none" stroke="#3EB0BB" stroke-miterlimit="10" width="10.842" height="10.841"/>
</svg>
