<svg width="75.99999999999999" height="75.99999999999999" xmlns="http://www.w3.org/2000/svg">
 <g>
  <title>background</title>
  <rect x="-1" y="-1" width="78" height="78" id="canvas_background" fill="none"/>
 </g>

 <g>
  <title>Layer 1</title>
  <polyline fill="none" stroke="#40A8B2" stroke-linecap="round" stroke-linejoin="round" stroke-miterlimit="10" points="13.776000022888184,18.198999404907227 3.4660000801086426,18.198999404907227 3.4660000801086426,74.5 72.53399658203125,74.5 72.53399658203125,18.198999404907227 64.09200286865234,18.198999404907227 " id="svg_1"/>
  <path fill="none" stroke="#40A8B2" stroke-linecap="round" stroke-linejoin="round" stroke-miterlimit="10" d="m17.699,39.441l20.072,20.254l20.529,-20.254l-13.046,-0.005c-0.119,-2.179 0.638,-7.363 -2.837,-17.511c-3.678,-10.746 -16.757,-21.425 -16.757,-21.425s4.608,10.679 6.263,22.241c1.075,7.488 0.369,14.177 -1.204,16.769l-13.02,-0.069z" id="svg_2" transform="rotate(179.7242431640625 37.999500274658196,30.097499847412106) "/>
  <path id="XMLID_198_" fill="none" stroke="#40A8B2" stroke-miterlimit="10" d="m3.466,67.345c0,0 7.17,-9.395 15.453,-9.395c16.766,0 24.747,15.757 38.984,15.757c10.91,0 14.647,-6.262 14.647,-6.262"/>
  <path id="svg_10" fill="none" stroke="#40A8B2" stroke-miterlimit="10" d="m3.466,51.345c0,0 7.17,-9.395 15.453,-9.395c16.766,0 24.747,15.757 38.984,15.757c10.91,0 14.647,-6.262 14.647,-6.262"/>
  <path id="svg_11" fill="none" stroke="#40A8B2" stroke-miterlimit="10" d="m3.466,34.345c0,0 7.17,-9.395 15.453,-9.395c16.766,0 24.747,15.757 38.984,15.757c10.91,0 14.647,-6.262 14.647,-6.262"/>
  <path d="m36.617592,30.214851c0,0 0,0.291033 0,0.43655c0,0.291033 0,0.582066 0,0.8731c0,0.145517 0.089828,0.447626 0.145515,0.582066c0.078751,0.190128 0.291035,0.145519 0.291035,0c0,-0.436548 0,-0.727583 0,-1.164133c0,-0.145517 0,-0.43655 0,-0.727583c0,-0.145517 -0.042622,-0.188137 -0.145519,-0.291035c-0.102898,-0.102896 -0.011078,-0.34672 -0.145515,-0.291033c-0.190125,0.078753 -0.216274,0.265385 -0.291035,0.582067c-0.033432,0.141623 0.175667,0.529943 -0.145515,0.582066c-0.203133,0.032965 -0.341408,-0.393692 -0.582066,-0.727583c-0.190258,-0.263968 -0.085243,-0.667309 -0.291035,-0.8731c-0.102898,-0.102898 -0.170708,0.124086 -0.291035,0.291033c-0.190254,0.263966 -0.145515,0.43655 -0.145515,0.582067c0,0.291033 -0.145515,0.582067 0,0.582067c0.291035,0 0,-0.43655 0,-0.727585c0,-0.291033 -0.112087,-0.58596 -0.145519,-0.727583c-0.074757,-0.316681 -0.188137,-0.333656 -0.291031,-0.436552c-0.102894,-0.102896 -0.089832,-0.134439 -0.145519,0c-0.078751,0.190126 -0.145515,0.291035 -0.145515,0.436552c0,0.145515 -0.145515,0.291033 -0.145515,0.145515c0,-0.145515 -0.070759,-0.265385 -0.145519,-0.582067c-0.033432,-0.141623 0.055687,-0.279957 0,-0.145515c-0.078751,0.190125 -0.089828,0.302109 -0.145515,0.43655c-0.078751,0.190126 -0.042618,0.333654 -0.145515,0.43655c-0.102898,0.102898 -0.145519,-0.291033 -0.145519,-0.43655c0,-0.145517 -0.145515,-0.145517 -0.145515,-0.291035c0,-0.145515 0.055687,-0.302111 0,-0.43655c-0.078754,-0.190126 -0.145519,-0.291033 -0.145519,-0.43655c0,-0.145517 -0.145515,-0.145517 -0.145515,0c0,0.145517 0,0.291035 0,0.43655c0,0.145517 -0.042622,0.188139 -0.145515,0.291035c-0.102894,0.102896 0,0.291033 0,0.145515c0,-0.145515 0,-0.291033 0,-0.43655c0,-0.145515 -0.066765,-0.246422 -0.145519,-0.43655c-0.055687,-0.134439 -0.042622,-0.393929 -0.145515,-0.291033c-0.102894,0.102896 0,0.291033 0,0.43655c0,0.145517 0,0.291033 0,0.43655c0,0.145517 0,0.291033 0,0.145517c0,-0.145517 0,-0.291035 0,-0.43655c0,-0.145517 0,-0.291035 0,-0.436552c0,-0.145515 0,0 0,0.145517c0,0.145517 0,0.291035 0,0.43655c0,0.145517 -0.145515,0.43655 0,0.43655c0.145515,0 0,-0.291033 0,-0.43655c0,-0.145515 0.145515,-0.43655 0,-0.43655c-0.145515,0 0,0.291035 0,0.43655c0,0.145517 -0.145515,0.291035 -0.145515,0.43655c0,0.145517 0,0.291035 0,0.436552c0,0.145515 0,0.291033 0,0.145515c0,-0.145515 0,-0.291033 0,-0.43655c0,-0.145517 0,-0.291033 0,-0.43655c0,-0.145517 0,-0.291033 0,-0.43655c0,-0.145517 0,-0.291035 0,-0.43655c0,-0.145517 0,0 0,0.145515c0,0.145517 0,0.291035 0,0.436552c0,0.145515 0,0.291033 0,0.43655c0,0.145515 0,0 0,-0.145517c0,-0.145517 0,-0.291033 0,-0.43655c0,-0.145517 -0.042622,-0.188137 -0.145519,-0.291035c-0.102894,-0.102896 -0.145515,-0.145515 -0.145515,0c0,0.145517 -0.102898,0.333656 0,0.436552c0.102894,0.102896 0.291035,0 0.582066,0c0.291035,0 0.582069,0 0.727585,0c0.145519,0 0.291035,-0.145517 0.43655,-0.145517l0.145519,0" id="svg_3" stroke-width="1.5" stroke="#fff" fill="none"/>
  <polyline stroke-linecap="round" id="svg_4" points="48.841001110438754,28.6141657136433 48.841001110438754,28.6141657136433 " stroke-width="1.5" stroke="#fff" fill="none"/>
  <polyline stroke-linecap="round" id="svg_5" points="38.65482557042918,30.360367234787798 38.65482557042918,30.360367234787798 " stroke-width="1.5" stroke="#fff" fill="none"/>
  <path d="m39.236893,27.450031c0,0 0,0.145517 0,0.291033c0,0.145517 -0.070759,0.265388 -0.145515,0.582067c-0.033432,0.141624 0.033432,0.440443 0,0.582067c-0.07476,0.316683 -0.034145,0.458704 -0.145519,0.727585c-0.078751,0.190125 -0.145515,0.43655 -0.145515,0.582067c0,0.145515 0,0.291033 0,0.43655c0,0.145515 -0.042622,0.188137 -0.145515,0.291033c-0.102898,0.102896 0.033432,0.294926 0,0.43655c-0.07476,0.316683 -0.145519,0.43655 -0.145519,0.582067c0,0.145515 0,0.291035 0,0.43655l0,0.145515l0,0.145519" id="svg_6" stroke-width="1.5" stroke="#fff" fill="none"/>
  <polyline stroke-linecap="round" id="svg_7" points="87.69398495590383,35.89000538507871 87.69398495590383,35.89000538507871 " stroke-width="1.5" stroke="#fff" fill="none"/>
  <path d="m39.673443,31.815535c0,0 -0.145515,0 -0.145515,0.291033c0,0.145519 0,0.291035 0,0.727585c0,0.145515 0,0.43655 0,0.582069c0,0.145515 -0.033432,-0.003891 0,-0.145519c0.074757,-0.316681 0.145515,-0.43655 0.145515,-0.727585c0,-0.291031 0,-0.145515 0,0c0,0.145519 -0.145515,0.291035 -0.145515,0.43655c0,0.145519 0,0 0,-0.291031c0,-0.145519 0,-0.291035 0,-0.43655c0,-0.145519 -0.124088,-0.120331 -0.291035,0c-0.263966,0.190258 -0.291035,0.291031 -0.291035,0.43655c0,0.145515 0,-0.145519 0,-0.43655c0,-0.145519 -0.145515,-0.145519 -0.145515,0c0,0.145515 -0.102898,0.333652 0,0.43655c0.102894,0.102894 0.411003,0.131271 0.582066,-0.145519c0.0765,-0.123783 0.042625,-0.188137 0.145519,-0.291031c0.102894,-0.102894 0.145515,0.145515 0.145515,0.291031c0,0.291035 0.21228,0.391941 0.291035,0.582069c0.055687,0.134438 0.042622,0.393929 0.145515,0.291035c0.102898,-0.102898 0.361794,-0.410908 0.43655,-0.727585c0.033432,-0.141628 0,0 0,0.145515c0,0.145515 0,0.43655 0,0.582069c0,0.291031 -0.134438,0.526379 0,0.582066c0.190128,0.078754 0.112087,-0.294926 0.145519,-0.43655c0.074757,-0.316681 0.291031,-0.291035 0.291031,-0.43655c0,-0.145519 0,0.145515 0,0.291035c0,0.291031 0.066765,0.537453 0.145519,0.727581c0.055687,0.134441 0.066765,0.044609 0.145515,-0.145515c0.055687,-0.134438 0.145515,-0.145515 0.145515,0c0,0.145515 0.042622,0.539448 0.145519,0.43655c0.102894,-0.102894 -0.044609,-0.515301 0.145515,-0.43655c0.134438,0.055687 0,0.43655 0,0.582066c0,0.145519 0.042618,0.102898 0.145515,0c0.102898,-0.102898 0.145519,-0.145515 0.145519,-0.291031c0,-0.145519 0.066765,-0.044609 0.145515,0.145515c0.055687,0.134438 -0.145515,0.43655 0,0.43655c0.145515,0 0,-0.291035 0.145515,-0.291035c0.145519,0 0.145519,0.145519 0.145519,0.291035c0,0.145515 0,0.291035 0,0.43655l0,0.145519l0,0.145515l0.145515,0" id="svg_8" stroke-width="1.5" stroke="#fff" fill="none"/>
  <polyline stroke-linecap="round" id="svg_9" points="42.72929578643301,44.912046577658614 42.72929578643301,44.912046577658614 " stroke-width="1.5" stroke="#fff" fill="none"/>
  <path d="m46.076183,53.206505c0,0 -0.060276,0.085239 0.145515,0.291031c0.102894,0.102894 0.145515,0.145519 0.145515,0.291035c0,0.145519 0.000004,0.291035 0.145519,0.291035c0.145515,0 0,-0.291035 0,-0.43655c0,-0.145519 -0.042625,-0.333656 -0.145519,-0.43655c-0.102894,-0.102894 -0.291031,0 -0.43655,0c-0.145515,0 -0.188133,-0.042622 -0.291031,-0.145519c-0.102898,-0.102898 -0.212284,-0.100906 -0.291035,-0.291031c-0.055687,-0.134441 -0.145515,-0.145519 -0.145515,-0.291035c0,-0.145515 -0.042622,-0.188137 -0.145519,-0.291035c-0.102894,-0.102894 -0.042622,-0.188137 -0.145515,-0.291031c-0.102898,-0.102898 -0.145519,-0.145519 -0.145519,-0.291035c0,-0.145519 -0.145515,-0.291035 -0.145515,-0.43655c0,-0.145519 -0.145515,-0.145519 -0.291035,-0.145519c-0.145515,0 -0.248409,0.188141 -0.145515,0.291035c0.102894,0.102894 0.145515,0.145515 0.145515,0.291035c0,0.145515 0.145519,0.291035 0.145519,0.43655c0,0.145515 0.145515,0.145515 0.145515,0.291035c0,0.145515 0.188137,0.042618 0.291035,0.145515c0.102894,0.102894 0.042622,0.188141 0.145515,0.291035c0.102894,0.102894 0.042625,0.188137 0.145519,0.291031c0.102894,0.102894 0.21228,0.10091 0.291031,0.291035c0.055687,0.134438 0.042622,0.188137 0.145519,0.291035c0.102894,0.102894 0.145515,0.145515 0.291031,0.145515c0.145519,0 0.145519,0.145519 0.291035,0.145519c0.145515,0 0.188141,0.042622 0.291035,0.145515c0.102894,0.102894 0.235344,0.011078 0.291031,0.145515c0.078754,0.190128 0.291035,0.145519 0.291035,0.291035c0,0.145515 0.145519,0.145515 0.145519,0.291035l0.145515,0l0,0.145515" id="svg_12" stroke-width="1.5" stroke="#fff" fill="none"/>
  <polyline stroke-linecap="round" id="svg_13" points="73.28782240646171,51.460302281950476 73.28782240646171,51.460302281950476 " stroke-width="1.5" stroke="#fff" fill="none"/>
  <polyline stroke-linecap="round" id="svg_14" points="85.80226664133062,48.549966413376325 85.80226664133062,48.549966413376325 " stroke-width="1.5" stroke="#fff" fill="none"/>
  <polyline stroke-linecap="round" id="svg_15" points="47.531349969580376,55.2437389110969 47.531349969580376,55.2437389110969 " stroke-width="1.5" stroke="#fff" fill="none"/>
  <polyline transform="rotate(-142.43142700195312 55.24374008178711,49.277549743652344) " stroke-linecap="round" id="svg_16" points="55.2437400213019,49.27755038051986 55.2437400213019,49.27755038051986 " stroke-width="1.5" stroke="#fff" fill="none"/>
  <path d="m29.778301,28.759682c0,0 0,-0.145515 0,-0.291033c0,-0.145517 0,-0.291033 0,-0.43655c0,-0.145517 0,-0.291035 0,-0.43655c0,-0.145517 0,-0.291035 0,-0.43655c0,-0.145517 0,-0.291035 0,-0.436552c0,-0.145515 -0.042622,-0.188137 -0.145517,-0.291033c-0.102896,-0.102896 -0.04262,-0.188137 -0.145515,-0.291033c-0.102896,-0.102896 0,0 0,0.145515c0,0.145517 0,0.291035 0,0.43655c0,0.145517 0,0.291035 0,0.436552l0,0.145515l0,0.145517" id="svg_17" stroke-width="null" fill="#40A8B2"/>
  <polyline stroke-linecap="round" id="svg_18" points="93.36913989962343,38.800341253652874 93.36913989962343,38.800341253652874 " stroke-width="null" fill="none"/>
  <path fill-opacity="0" d="m45.639633,36.617588c0,0 0,0.145519 0,0.291035c0,0.145515 0,0.291035 0,0.43655c0,0.145515 0,0 0,-0.291035c0,-0.145515 0,-0.291031 0,-0.43655c0,-0.145515 0,-0.291031 0,-0.43655l0,-0.145515l0,-0.145515" id="svg_19" stroke-width="null" fill="#000000"/>
  <polyline stroke-linecap="round" id="svg_20" points="56.69890795558899,34.871387831077755 56.69890795558899,34.871387831077755 " fill-opacity="0" stroke-width="null" fill="none"/>
  <path stroke="#ffffff" d="m46.367214,37.054138c0,0 0,-0.145515 0,-0.291031c0,-0.145519 -0.145515,-0.291035 -0.145515,-0.43655c0,-0.145519 -0.042622,-0.188141 -0.145515,-0.291035c-0.205791,-0.205791 -0.042622,-0.333652 -0.145519,-0.43655c-0.102894,-0.102894 -0.145515,-0.145515 -0.145515,0c0,0.145515 0.033432,0.294926 0,0.43655c-0.074757,0.316681 -0.145515,0.43655 -0.145515,0.582066l0,0.145519l0,0.145515" id="svg_21" fill-opacity="0" stroke-width="null" fill="none"/>
  <path d="m28.759684,25.994864c0,0 0,0.145517 0,0.291033c0,0.145517 0,0.291035 0,0.43655c0,0.291035 0,0.436552 0,0.727585c0,0.145517 0,0.291033 0,0.43655c0,0.145517 0.145517,0.145517 0.145517,0c0,-0.145517 -0.205793,-0.376274 0,-0.582067c0.102896,-0.102896 0.291033,-0.43655 0.145515,-0.43655c-0.145517,0 0,0.291035 0,0.43655c0,0.145517 -0.044609,0.515305 0.145517,0.43655c0.134439,-0.055687 0.066765,-0.246422 0.145517,-0.43655c0.055687,-0.134439 0.145517,-0.291033 0.145517,-0.145515c0,0.145515 0,0.291033 0,0.43655c0,0.145515 0,0.291033 0,0.145515c0,-0.145515 0.04262,-0.393929 0.145515,-0.291033c0.102896,0.102896 0,0.291033 0,0.43655c0,0.145517 0,0.291035 0.145517,0.291035c0.145517,0 0,-0.291035 0,-0.436552c0,-0.145515 -0.102896,-0.333654 0,-0.43655c0.102896,-0.102896 0.145517,-0.145515 0.145517,-0.291033c0,-0.145517 0,0 0,0.145517c0,0.145515 0,0.291033 0,0.43655c0,0.145515 0,0.291033 0,0.43655l0,0.145517l0,0.145515" id="svg_22" fill-opacity="0" stroke-width="null" stroke="#ffffff" fill="none"/>
  <polyline stroke-linecap="round" id="svg_23" points="28.323133236990895,33.56173669021938 28.323133236990895,33.56173669021938 " fill-opacity="0" stroke-width="null" stroke="#ffffff" fill="none"/>
  <path d="m45.639633,35.453457c0,0 0,0.145515 0,0.291031c0,0.145519 0,0.43655 0,0.582069c0,0.291031 -0.000004,0.43655 0.145515,0.43655c0.145519,0 0,-0.291035 0,-0.43655c0,-0.145519 -0.145515,-0.291035 -0.145515,-0.43655c0,-0.145519 -0.145519,-0.145519 -0.145519,0c0,0.145515 0,0.43655 0,0.582066c0,0.145515 0,0.291035 0,0.43655c0,0.145515 0,0.291035 0,0.43655c0,0.145515 0,0.291035 0,0.145515c0,-0.145515 0,-0.43655 0,-0.727581c0,-0.145519 0,-0.291035 0,-0.43655c0,-0.145519 0,-0.291035 0,-0.145519c0,0.145519 0,0.582069 0,0.727585c0,0.291035 -0.042622,0.248409 -0.145515,0.145515c-0.205791,-0.205791 0,-0.582066 0,-0.727581c0,-0.291035 -0.003887,-0.548637 -0.145515,-0.582069c-0.316685,-0.07476 -0.145519,0.43655 -0.145519,0.582069c0,0.145515 0,0 0,-0.145519c0,-0.145515 0.102894,-0.248409 0,-0.145515c-0.102894,0.102894 -0.145515,0.145515 -0.145515,0.291035c0,0.145515 0,0 0,-0.145519c0,-0.145515 0.102898,-0.333652 0,-0.43655c-0.102898,-0.102898 -0.145519,-0.145515 -0.145519,0c0,0.145519 0,0.291035 0,0.43655c0,0.145519 0,0.291035 0,0.43655l0,0.145519l0,0.145515l0.145519,0" id="svg_24" fill-opacity="0" stroke-width="null" stroke="#ffffff" fill="none"/>
  <polyline stroke-linecap="round" id="svg_25" points="52.76995453301387,33.125186309933255 52.76995453301387,33.125186309933255 52.915471326442585,33.125186309933255 " fill-opacity="0" stroke-width="null" stroke="#ffffff" fill="none"/>
  <path d="m39.382408,51.16927c0,0 0,-0.145519 0,-0.291035c0,-0.145515 -0.011078,-0.380863 -0.145515,-0.43655c-0.190125,-0.078751 -0.21228,-0.391937 -0.291035,-0.582066c-0.055687,-0.134441 0.055687,-0.302113 0,-0.43655c-0.078751,-0.190128 -0.291031,-0.291035 -0.291031,-0.436554c0,-0.145515 -0.145519,-0.145515 -0.145519,-0.291031c0,-0.145519 -0.248413,-0.102898 -0.145515,0c0.102894,0.102894 0.042622,0.188137 0.145515,0.291031c0.102898,0.102898 0.188141,0.042625 0.291035,0.145519c0.102894,0.102894 0.145515,0.145515 0.145515,0.291035c0,0.145515 0.042625,0.188137 0.145519,0.291031c0.102894,0.102894 0.042622,0.188141 0.145515,0.291035c0.102894,0.102894 0.042618,0.188137 0.145515,0.291035c0.102898,0.102898 0.145519,0.145515 0.145519,0.291031c0,0.145519 0.042622,0.188141 0.145515,0.291035c0.102894,0.102894 0.042618,0.188137 0.145515,0.291035c0.102898,0.102898 0.145519,0.145515 0.145519,0.291031c0,0.145519 0,0 0,-0.145515c0,-0.145515 0,-0.291035 0,-0.43655c0,-0.145515 0.145515,-0.43655 0,-0.43655c-0.145515,0 -0.102894,0.333656 0,0.43655c0.102894,0.102894 0.145515,0.145515 0.145515,0.291035c0,0.145515 0.145515,0.145515 0.145515,0l0,-0.145519l-0.145515,-0.145515l-0.145515,0" id="svg_26" fill-opacity="0" stroke-width="null" stroke="#ffffff" fill="none"/>
  <polyline stroke-linecap="round" id="svg_27" points="54.07960567387224,58.881658746814594 54.07960567387224,58.881658746814594 " fill-opacity="0" stroke-width="null" stroke="#ffffff" fill="none"/>
  <path d="m50.441685,55.68029c0,0 0,0.145515 0,0.291031c0,0.145519 0.145519,0.291035 0.145519,0.436554c0,0.145515 0.102898,-0.042622 0,-0.145519c-0.102898,-0.102898 -0.145519,-0.145515 -0.145519,-0.291035c0,-0.145515 -0.042622,-0.188137 -0.145515,-0.291031c-0.102894,-0.102894 -0.145515,-0.145519 -0.291035,-0.291035c-0.145515,-0.145515 -0.078751,-0.044609 0,0.145515c0.055687,0.134441 -0.102894,0.333656 0,0.43655c0.102898,0.102898 0.042625,0.188141 0.145519,0.291035c0.102894,0.102894 0.145515,0.145519 0.291031,0.145519l0,0.145515l0.145519,0" id="svg_28" fill-opacity="0" stroke-width="null" stroke="#ffffff" fill="none"/>
  <polyline stroke-linecap="round" id="svg_29" points="54.80718964101578,51.31478548852178 54.80718964101578,51.31478548852178 54.952706434444494,51.31478548852178 " fill-opacity="0" stroke-width="null" stroke="#ffffff" fill="none"/>
 </g>
</svg>