<?xml version="1.0" encoding="utf-8"?>
<!-- Generator: Adobe Illustrator 16.0.0, SVG Export Plug-In . SVG Version: 6.00 Build 0)  -->
<!DOCTYPE svg PUBLIC "-//W3C//DTD SVG 1.1//EN" "http://www.w3.org/Graphics/SVG/1.1/DTD/svg11.dtd">
<svg version="1.1" id="图层_1" xmlns="http://www.w3.org/2000/svg" xmlns:xlink="http://www.w3.org/1999/xlink" x="0px" y="0px"
	 width="76px" height="76px" viewBox="0 0 76 76" enable-background="new 0 0 76 76" xml:space="preserve">
<polyline fill="none" stroke="#40A8B2" stroke-linecap="round" stroke-linejoin="round" stroke-miterlimit="10" points="
	13.776,19.199 3.466,19.199 3.466,75.5 72.534,75.5 72.534,19.199 64.092,19.199 "/>
<path fill="none" stroke="#40A8B2" stroke-linecap="round" stroke-linejoin="round" stroke-miterlimit="10" d="M17.699,39.441
	l20.072,20.254l20.529-20.254l-13.046-0.005c-0.119-2.179,0.638-7.363-2.837-17.511C38.739,11.179,25.66,0.5,25.66,0.5
	s4.608,10.679,6.263,22.241c1.075,7.488,0.369,14.177-1.204,16.769L17.699,39.441z"/>
<path id="XMLID_198_" fill="none" stroke="#40A8B2" stroke-miterlimit="10" d="M3.466,67.345c0,0,7.17-9.395,15.453-9.395
	c16.766,0,24.747,15.757,38.984,15.757c10.91,0,14.647-6.262,14.647-6.262"/>
<g>
	<path fill="none" stroke="#40A8B2" stroke-miterlimit="10" d="M16.43,42.488c-7.177,1.545-12.964,9.1-12.964,9.1"/>
	<path fill="none" stroke="#40A8B2" stroke-miterlimit="10" d="M46.925,54.849c3.384,1.825,6.928,3.102,10.978,3.102
		c10.91,0,14.647-6.262,14.647-6.262"/>
</g>
<g>
	<path fill="none" stroke="#40A8B2" stroke-miterlimit="10" d="M10.623,36.629"/>
	<path fill="none" stroke="#40A8B2" stroke-miterlimit="10" d="M30.092,30.117c-3.332-1.48-6.977-2.467-11.173-2.467
		c-8.282,0-15.453,9.394-15.453,9.394"/>
	<line fill="none" stroke="#40A8B2" stroke-miterlimit="10" x1="72.55" y1="37.145" x2="64.882" y2="37.133"/>
</g>
</svg>
